<?xml version="1.0" encoding="UTF-8" standalone="no"?>
<!-- Created with Inkscape (http://www.inkscape.org/) -->

<svg
   xmlns:dc="http://purl.org/dc/elements/1.1/"
   xmlns:cc="http://creativecommons.org/ns#"
   xmlns:rdf="http://www.w3.org/1999/02/22-rdf-syntax-ns#"
   xmlns:svg="http://www.w3.org/2000/svg"
   xmlns="http://www.w3.org/2000/svg"
   xmlns:sodipodi="http://sodipodi.sourceforge.net/DTD/sodipodi-0.dtd"
   xmlns:inkscape="http://www.inkscape.org/namespaces/inkscape"
   version="1.1"
   id="svg78"
   width="1001.4441"
   height="185.44521"
   viewBox="0 0 1001.4441 185.44521"
   sodipodi:docname="kulakovARM-w.svg"
   inkscape:version="0.92.2 (5c3e80d, 2017-08-06)">
  <metadata
     id="metadata84">
    <rdf:RDF>
      <cc:Work
         rdf:about="">
        <dc:format>image/svg+xml</dc:format>
        <dc:type
           rdf:resource="http://purl.org/dc/dcmitype/StillImage" />
        <dc:title />
      </cc:Work>
    </rdf:RDF>
  </metadata>
  <defs
     id="defs82" />
  <sodipodi:namedview
     pagecolor="#ffffff"
     bordercolor="#666666"
     borderopacity="1"
     objecttolerance="10"
     gridtolerance="10"
     guidetolerance="10"
     inkscape:pageopacity="0"
     inkscape:pageshadow="2"
     inkscape:window-width="1366"
     inkscape:window-height="705"
     id="namedview80"
     showgrid="false"
     showguides="true"
     inkscape:guide-bbox="true"
     inkscape:measure-start="717.532,118.821"
     inkscape:measure-end="756.665,240.235"
     inkscape:zoom="0.450822"
     inkscape:cx="302.57935"
     inkscape:cy="177.06559"
     inkscape:window-x="-4"
     inkscape:window-y="-4"
     inkscape:window-maximized="1"
     inkscape:current-layer="svg78">
    <sodipodi:guide
       position="651.95269,185.34454"
       orientation="0,1"
       id="guide3781"
       inkscape:locked="false" />
    <sodipodi:guide
       position="613.87471,151.99453"
       orientation="1,0"
       id="guide3828"
       inkscape:locked="false" />
    <sodipodi:guide
       position="619.16538,63.930534"
       orientation="1,0"
       id="guide3836"
       inkscape:locked="false" />
    <sodipodi:guide
       position="599.53871,93.626534"
       orientation="1,0"
       id="guide3838"
       inkscape:locked="false" />
    <sodipodi:guide
       position="622.94317,185.34454"
       orientation="1,0"
       id="guide3840"
       inkscape:locked="false" />
    <sodipodi:guide
       position="658.29852,185.34454"
       orientation="1,0"
       id="guide3842"
       inkscape:locked="false" />
    <sodipodi:guide
       position="648.00806,151.99453"
       orientation="1,0"
       id="guide3844"
       inkscape:locked="false" />
    <sodipodi:guide
       position="1001.2755,181.11398"
       orientation="1,0"
       id="guide3854"
       inkscape:locked="false" />
    <sodipodi:guide
       position="-0.15691,82.904704"
       orientation="1,0"
       id="guide3856"
       inkscape:locked="false" />
  </sodipodi:namedview>
  <path
     inkscape:connector-curvature="0"
     id="path3806"
     style="font-style:normal;font-variant:normal;font-weight:900;font-stretch:normal;font-size:170.66667175px;line-height:0;font-family:HelveticaNeueCyr;-inkscape-font-specification:'HelveticaNeueCyr Heavy';letter-spacing:-8.5px;word-spacing:0px;fill:#000000;fill-opacity:1;stroke:none"
     d="M 116.90667,0 H 70.826665 l -34.64533,43.178669 c 0.34133,-10.581335 0.512,-6.997335 0.512,-18.602669 L 36.864005,0 H 0 V 121.51467 H 36.693335 V 85.674669 l 10.92267,-11.43467 29.696,47.274671 H 123.90401 L 72.874665,47.274669 Z"
     sodipodi:nodetypes="cccccccccccccc" />
  <path
     inkscape:connector-curvature="0"
     id="path3808"
     style="font-style:normal;font-variant:normal;font-weight:900;font-stretch:normal;font-size:170.66667175px;line-height:0;font-family:HelveticaNeueCyr;-inkscape-font-specification:'HelveticaNeueCyr Heavy';letter-spacing:-8.5px;word-spacing:0px;fill:#000000;fill-opacity:1;stroke:none"
     d="m 214.96135,33.450667 h -33.79201 v 44.714672 c 0,9.04533 -1.19466,17.92 -12.45866,17.92 -7.85067,0 -11.43468,-4.77867 -11.43468,-11.94667 V 33.450667 h -34.13333 v 54.442672 c 0,21.845331 8.87467,36.181331 32.08533,36.181331 11.264,0 20.992,-4.26667 26.96534,-13.824 v 11.264 h 32.76801 z"
     sodipodi:nodetypes="ccsssccsscccc" />
  <path
     inkscape:connector-curvature="0"
     id="path3810"
     style="font-style:normal;font-variant:normal;font-weight:900;font-stretch:normal;font-size:170.66667175px;line-height:0;font-family:HelveticaNeueCyr;-inkscape-font-specification:'HelveticaNeueCyr Heavy';letter-spacing:-8.5px;word-spacing:0px;fill:#000000;fill-opacity:1;stroke:none"
     d="m 259.44268,0 h -33.79201 v 121.51467 h 33.79201 z"
     sodipodi:nodetypes="ccccc" />
  <path
     inkscape:connector-curvature="0"
     id="path3812"
     style="font-style:normal;font-variant:normal;font-weight:900;font-stretch:normal;font-size:170.66667175px;line-height:0;font-family:HelveticaNeueCyr;-inkscape-font-specification:'HelveticaNeueCyr Heavy';letter-spacing:-8.5px;word-spacing:0px;fill:#000000;fill-opacity:1;stroke:none"
     d="m 360.41733,121.51467 c -3.75466,-7.50933 -3.75466,-16.55467 -3.75466,-25.088001 0,-13.65333 0.34134,-22.016 0.34134,-33.10933 0,-8.87467 -0.512,-12.11734 -2.38934,-16.04267 -6.65601,-14.165335 -27.98933,-16.384002 -41.64266,-16.384002 -29.01334,0 -43.17867,9.557332 -44.03201,29.525332 h 31.57334 c 1.19467,-6.82666 4.26667,-8.87466 12.45867,-8.87466 7.50933,0 11.09333,2.38933 11.09333,7.68 0,8.53333 -12.28801,8.02133 -18.26133,8.87466 -18.09067,2.56 -40.96001,4.77867 -40.96001,28.672 0,17.408001 11.94666,27.648001 31.91467,27.648001 11.776,0 20.13866,-3.072 28.16,-11.09333 0.17067,3.24267 0.34134,4.26667 1.36534,8.192 z M 324.236,81.407999 v 5.29067 c 0,5.80267 -0.51199,8.53333 -2.048,11.09333 -2.55999,4.266671 -7.50933,6.826671 -13.312,6.826671 -5.97334,0 -9.55733,-3.41333 -9.55733,-8.874671 0,-4.77866 2.90134,-7.85066 9.216,-9.216 5.46133,-1.19466 11.09334,-2.048 15.70133,-5.12 z"
     sodipodi:nodetypes="csscsccsscssccccsssscc" />
  <path
     inkscape:connector-curvature="0"
     id="path3814"
     style="font-style:normal;font-variant:normal;font-weight:900;font-stretch:normal;font-size:170.66667175px;line-height:0;font-family:HelveticaNeueCyr;-inkscape-font-specification:'HelveticaNeueCyr Heavy';letter-spacing:-8.5px;word-spacing:0px;fill:#000000;fill-opacity:1;stroke:none"
     d="m 458.29868,33.450667 h -37.71733 l -15.36,18.261332 c -2.38933,2.90134 -3.58401,4.43734 -6.48533,8.704 l 0.512,-6.82666 V 0 h -33.45068 v 121.51467 h 33.45068 V 95.061339 l 5.80265,-5.80267 18.432,32.256001 h 39.93601 l -36.352,-54.784001 z"
     sodipodi:nodetypes="ccccccccccccccc" />
  <path
     inkscape:connector-curvature="0"
     id="path3816"
     style="font-style:normal;font-variant:normal;font-weight:900;font-stretch:normal;font-size:170.66667175px;line-height:0;font-family:HelveticaNeueCyr;-inkscape-font-specification:'HelveticaNeueCyr Heavy';letter-spacing:-8.5px;word-spacing:0px;fill:#000000;fill-opacity:1;stroke:none"
     d="m 506.68669,30.890667 c -28.84267,0 -48.81067,18.944002 -48.81067,46.592002 0,27.648001 19.79734,46.592001 48.46934,46.592001 28.50133,0 48.29867,-19.28533 48.29867,-46.933331 0,-27.47734 -19.62667,-46.250672 -47.95734,-46.250672 z m -0.68267,24.405332 c 12.62933,0 14.848,11.94667 14.848,21.84534 0,9.728 -1.87734,22.69866 -14.50667,22.69866 -12.45867,0 -14.67733,-12.62933 -14.67733,-22.35733 0,-14.848 4.77866,-22.18667 14.336,-22.18667 z"
     sodipodi:nodetypes="ssssssssss" />
  <path
     inkscape:connector-curvature="0"
     id="path3818"
     style="font-style:normal;font-variant:normal;font-weight:900;font-stretch:normal;font-size:170.66667175px;line-height:0;font-family:HelveticaNeueCyr;-inkscape-font-specification:'HelveticaNeueCyr Heavy';letter-spacing:-8.5px;word-spacing:0px;fill:#000000;fill-opacity:1;stroke:none"
     d="m 663.13342,0.100669 h -43.96804 l -13.14133,61.33933 c -2.73068,9.728 -5.46134,20.30934 -6.48534,30.37867 -1.36533,-10.92267 -3.75466,-21.67467 -6.656,-32.42667 l -6.99733,-25.941332 h -35.66933 l 29.35465,88.064003 h 39.59467 z"
     sodipodi:nodetypes="cccccccccc" />
  <g
     aria-label="ARM"
     style="font-style:normal;font-weight:normal;font-size:40px;line-height:1.25;font-family:sans-serif;letter-spacing:0px;word-spacing:0px;fill:#aa0000;fill-opacity:1;stroke:none"
     id="text3848">
    <path
       d="m 698.78003,60.177041 h -36.864 L 617.0307,181.69171 h 37.71733 l 5.97334,-17.23733 h 39.08266 l 5.97334,17.23733 h 37.71733 z m -7.168,78.165339 H 668.7427 c 4.096,-12.288 6.656,-20.65067 6.656,-20.65067 2.38933,-7.50933 3.072,-10.24 5.12,-18.602668 1.70667,8.021338 2.048,10.069338 4.608,18.431998 0,0 4.26667,13.824 6.48533,20.82134 z"
       style="font-style:normal;font-variant:normal;font-weight:900;font-stretch:normal;font-size:170.66667175px;font-family:HelveticaNeueCyr;-inkscape-font-specification:'HelveticaNeueCyr Heavy';letter-spacing:-9px;fill:#aa0000"
       id="path106" />
    <path
       d="M 742.7987,60.177041 V 181.69171 h 36.864 v -42.83733 h 15.70134 c 17.408,0 19.62666,10.58133 20.65066,24.576 l 0.512,6.82666 c 0.34134,3.75467 0.68267,8.02134 2.21867,11.43467 h 36.864 c -2.38933,-3.584 -2.73066,-8.87467 -3.072,-13.14133 l -1.19466,-12.8 c -1.024,-10.752 -5.46134,-26.96534 -17.74934,-30.03734 10.92267,-4.94933 17.92,-16.55466 17.92,-29.695998 0,-28.160001 -24.40533,-35.840001 -43.34933,-35.840001 z m 36.864,28.160001 h 18.432 c 11.43467,0 17.23734,4.096 17.23734,12.287998 0,9.55734 -6.656,12.62934 -15.18934,12.62934 h -20.48 z"
       style="font-style:normal;font-variant:normal;font-weight:900;font-stretch:normal;font-size:170.66667175px;font-family:HelveticaNeueCyr;-inkscape-font-specification:'HelveticaNeueCyr Heavy';letter-spacing:-9px;fill:#aa0000"
       id="path108" />
    <path
       d="m 1001.444,60.177041 h -52.39463 l -7.50933,30.720001 c -3.75467,15.701338 -7.50933,31.061338 -10.24,46.933338 -2.38933,-15.53067 -5.632,-30.72 -9.38667,-46.080005 L 914.06271,60.177041 H 860.64404 V 181.69171 h 34.98667 l -0.17067,-23.38133 c -0.17067,-27.81867 -0.17067,-35.15734 -1.36533,-64.000005 l 23.04,87.381335 h 27.81866 l 22.86934,-87.381335 c -0.85334,23.040005 -1.36534,46.080005 -1.36534,69.120005 v 18.26133 h 34.98663 z"
       style="font-style:normal;font-variant:normal;font-weight:900;font-stretch:normal;font-size:170.66667175px;font-family:HelveticaNeueCyr;-inkscape-font-specification:'HelveticaNeueCyr Heavy';letter-spacing:-9px;fill:#aa0000"
       id="path110" />
  </g>
  <g
     aria-label="ДЛЯ АРМРЕСТЛИНГА"
     style="font-style:normal;font-weight:normal;font-size:40px;line-height:1.25;font-family:sans-serif;letter-spacing:0px;word-spacing:0px;fill:#000000;fill-opacity:1;stroke:none"
     id="text3852">
    <path
       d="M 686.74567,0.71306883 V 2.5050688 c 0,5.012 -0.784,10.0800002 -2.38,13.0480002 h -2.044 v 9.744 h 5.572 v -4.648 h 11.06 v 4.648 h 5.544 v -9.744 h -2.464 V 0.71306883 Z m 9.296,14.84000017 h -5.6 c 0.84,-1.596 1.82,-5.7960002 1.82,-8.1480002 v -1.68 h 3.78 z"
       style="font-style:normal;font-variant:normal;font-weight:900;font-stretch:normal;font-size:28px;font-family:HelveticaNeueCyr;-inkscape-font-specification:'HelveticaNeueCyr Heavy';text-align:end;text-anchor:end"
       id="path113" />
    <path
       d="M 708.80092,0.71306883 V 9.2810688 c 0,3.2480002 -0.084,6.8600002 -2.156,6.8600002 -0.448,0 -0.952,-0.14 -1.204,-0.308 v 4.732 c 0.812,0.336 1.652,0.448 2.436,0.448 7.084,0 6.944,-8.344 6.944,-14.0000002 v -1.176 h 3.668 V 20.649069 h 6.076 V 0.71306883 Z"
       style="font-style:normal;font-variant:normal;font-weight:900;font-stretch:normal;font-size:28px;font-family:HelveticaNeueCyr;-inkscape-font-specification:'HelveticaNeueCyr Heavy';text-align:end;text-anchor:end"
       id="path115" />
    <path
       d="M 745.71323,20.649069 V 0.71306883 h -9.128 c -6.3,0 -8.204,2.63199997 -8.204,6.13199997 0,2.464 1.68,4.5920002 3.808,5.4040002 l -5.712,8.4 h 7.448 l 4.144,-7.224 h 1.652 v 7.224 z m -5.992,-11.5640002 h -3.108 c -1.54,0 -2.324,-0.616 -2.324,-1.848 0,-1.232 0.812,-1.904 2.324,-1.904 h 3.108 z"
       style="font-style:normal;font-variant:normal;font-weight:900;font-stretch:normal;font-size:28px;font-family:HelveticaNeueCyr;-inkscape-font-specification:'HelveticaNeueCyr Heavy';text-align:end;text-anchor:end"
       id="path117" />
    <path
       d="m 769.79936,0.71306883 h -6.048 l -7.364,19.93600017 h 6.188 l 0.98,-2.828 h 6.412 l 0.98,2.828 h 6.188 z m -1.176,12.82400017 h -3.752 c 0.672,-2.016 1.092,-3.388 1.092,-3.388 0.392,-1.2320002 0.504,-1.6800002 0.84,-3.0520002 0.28,1.316 0.336,1.652 0.756,3.0240002 0,0 0.7,2.268 1.064,3.416 z"
       style="font-style:normal;font-variant:normal;font-weight:900;font-stretch:normal;font-size:28px;font-family:HelveticaNeueCyr;-inkscape-font-specification:'HelveticaNeueCyr Heavy';text-align:end;text-anchor:end"
       id="path119" />
    <path
       d="M 778.52573,0.71306883 V 20.649069 h 6.076 v -6.16 h 3.808 c 4.284,0 7.504,-2.1 7.504,-6.6920002 0,-5.824 -4.34,-7.08399997 -8.708,-7.08399997 z m 6.076,4.89999997 h 2.828 c 1.792,0 2.632,0.7 2.632,2.128 0,1.624 -1.036,2.1 -2.52,2.1 h -2.94 z"
       style="font-style:normal;font-variant:normal;font-weight:900;font-stretch:normal;font-size:28px;font-family:HelveticaNeueCyr;-inkscape-font-specification:'HelveticaNeueCyr Heavy';text-align:end;text-anchor:end"
       id="path121" />
    <path
       d="m 821.36923,0.71306883 h -8.596 l -1.232,5.03999997 c -0.616,2.576 -1.232,5.0960002 -1.68,7.7000002 -0.392,-2.548 -0.924,-5.0400002 -1.54,-7.5600002 l -1.288,-5.17999997 h -8.764 V 20.649069 h 5.74 l -0.028,-3.836 c -0.028,-4.564 -0.028,-5.768 -0.224,-10.5000002 l 3.78,14.3360002 h 4.564 l 3.752,-14.3360002 c -0.14,3.7800002 -0.224,7.5600002 -0.224,11.3400002 v 2.996 h 5.74 z"
       style="font-style:normal;font-variant:normal;font-weight:900;font-stretch:normal;font-size:28px;font-family:HelveticaNeueCyr;-inkscape-font-specification:'HelveticaNeueCyr Heavy';text-align:end;text-anchor:end"
       id="path123" />
    <path
       d="M 824.6273,0.71306883 V 20.649069 h 6.076 v -6.16 h 3.808 c 4.284,0 7.504,-2.1 7.504,-6.6920002 0,-5.824 -4.34,-7.08399997 -8.708,-7.08399997 z m 6.076,4.89999997 h 2.828 c 1.792,0 2.632,0.7 2.632,2.128 0,1.624 -1.036,2.1 -2.52,2.1 h -2.94 z"
       style="font-style:normal;font-variant:normal;font-weight:900;font-stretch:normal;font-size:28px;font-family:HelveticaNeueCyr;-inkscape-font-specification:'HelveticaNeueCyr Heavy';text-align:end;text-anchor:end"
       id="path125" />
    <path
       d="m 860.8628,0.71306883 h -16.52 V 20.649069 h 16.8 v -5.068 h -10.78 v -2.912 h 9.52 V 8.0490688 h -9.52 v -2.492 h 10.5 z"
       style="font-style:normal;font-variant:normal;font-weight:900;font-stretch:normal;font-size:28px;font-family:HelveticaNeueCyr;-inkscape-font-specification:'HelveticaNeueCyr Heavy';text-align:end;text-anchor:end"
       id="path127" />
    <path
       d="m 882.7343,12.781069 h -6.02 c -0.308,2.072 -1.428,3.192 -3.22,3.192 -2.38,0 -3.836,-2.044 -3.836,-5.348 0,-2.4640002 0.952,-5.3480002 3.836,-5.3480002 1.736,0 2.884,1.008 3.22,2.8 h 5.936 c -0.28,-4.48 -4.172,-7.86799997 -9.044,-7.86799997 -6.048,0 -10.108,4.56399997 -10.108,10.41600017 0,5.908 3.892,10.5 9.996,10.5 4.844,0 8.876,-2.828 9.24,-8.344 z"
       style="font-style:normal;font-variant:normal;font-weight:900;font-stretch:normal;font-size:28px;font-family:HelveticaNeueCyr;-inkscape-font-specification:'HelveticaNeueCyr Heavy';text-align:end;text-anchor:end"
       id="path129" />
    <path
       d="m 901.13555,0.71306883 h -17.276 V 5.8370688 h 5.572 V 20.649069 h 6.104 V 5.8370688 h 5.6 z"
       style="font-style:normal;font-variant:normal;font-weight:900;font-stretch:normal;font-size:28px;font-family:HelveticaNeueCyr;-inkscape-font-specification:'HelveticaNeueCyr Heavy';text-align:end;text-anchor:end"
       id="path131" />
    <path
       d="M 905.89467,0.71306883 V 9.2810688 c 0,3.2480002 -0.084,6.8600002 -2.156,6.8600002 -0.448,0 -0.952,-0.14 -1.204,-0.308 v 4.732 c 0.812,0.336 1.652,0.448 2.436,0.448 7.084,0 6.944,-8.344 6.944,-14.0000002 v -1.176 h 3.668 V 20.649069 h 6.076 V 0.71306883 Z"
       style="font-style:normal;font-variant:normal;font-weight:900;font-stretch:normal;font-size:28px;font-family:HelveticaNeueCyr;-inkscape-font-specification:'HelveticaNeueCyr Heavy';text-align:end;text-anchor:end"
       id="path133" />
    <path
       d="m 943.31098,0.71306883 h -6.524 l -5.768,12.29200017 c 0.084,-1.484 0.14,-3.5840002 0.14,-4.7320002 V 0.71306883 h -5.852 V 20.649069 h 6.552 l 5.796,-12.4040002 c -0.112,1.176 -0.168,3.6400002 -0.168,4.9000002 v 7.504 h 5.824 z"
       style="font-style:normal;font-variant:normal;font-weight:900;font-stretch:normal;font-size:28px;font-family:HelveticaNeueCyr;-inkscape-font-specification:'HelveticaNeueCyr Heavy';text-align:end;text-anchor:end"
       id="path135" />
    <path
       d="m 964.58442,0.71306883 h -6.104 V 7.4050688 h -5.768 V 0.71306883 h -6.132 V 20.649069 h 6.132 v -7.868 h 5.768 v 7.868 h 6.104 z"
       style="font-style:normal;font-variant:normal;font-weight:900;font-stretch:normal;font-size:28px;font-family:HelveticaNeueCyr;-inkscape-font-specification:'HelveticaNeueCyr Heavy';text-align:end;text-anchor:end"
       id="path137" />
    <path
       d="m 974.12586,5.8370688 h 8.848 V 0.71306883 h -14.98 V 20.649069 h 6.132 z"
       style="font-style:normal;font-variant:normal;font-weight:900;font-stretch:normal;font-size:28px;font-family:HelveticaNeueCyr;-inkscape-font-specification:'HelveticaNeueCyr Heavy';text-align:end;text-anchor:end"
       id="path139" />
    <path
       d="m 994.01811,0.71306883 h -6.048 l -7.364,19.93600017 h 6.188 l 0.98,-2.828 h 6.412 l 0.98,2.828 h 6.18799 z m -1.176,12.82400017 h -3.752 c 0.672,-2.016 1.092,-3.388 1.092,-3.388 0.392,-1.2320002 0.504,-1.6800002 0.84,-3.0520002 0.28,1.316 0.336,1.652 0.756,3.0240002 0,0 0.7,2.268 1.064,3.416 z"
       style="font-style:normal;font-variant:normal;font-weight:900;font-stretch:normal;font-size:28px;font-family:HelveticaNeueCyr;-inkscape-font-specification:'HelveticaNeueCyr Heavy';text-align:end;text-anchor:end"
       id="path141" />
  </g>
  <g
     aria-label="ПРОФЕССИОНАЛЬНОЕ ОБОРУДОВАНИЕ"
     style="font-style:normal;font-weight:normal;font-size:40px;line-height:1.25;font-family:sans-serif;letter-spacing:0px;word-spacing:0px;fill:#000000;fill-opacity:1;stroke:none"
     id="text3860">
    <path
       d="M 18.189038,160.8612 H 0.18503826 v 19.936 H 6.3170383 v -14.812 h 5.7679997 v 14.812 h 6.104 z"
       style="font-style:normal;font-variant:normal;font-weight:900;font-stretch:normal;font-size:28px;font-family:HelveticaNeueCyr;-inkscape-font-specification:'HelveticaNeueCyr Heavy'"
       id="path144" />
    <path
       d="m 21.458476,160.8612 v 19.936 h 6.076 v -6.16 h 3.808 c 4.284,0 7.504,-2.1 7.504,-6.692 0,-5.824 -4.34,-7.084 -8.708,-7.084 z m 6.076,4.9 h 2.828 c 1.792,0 2.632,0.7 2.632,2.128 0,1.624 -1.036,2.1 -2.52,2.1 h -2.94 z"
       style="font-style:normal;font-variant:normal;font-weight:900;font-stretch:normal;font-size:28px;font-family:HelveticaNeueCyr;-inkscape-font-specification:'HelveticaNeueCyr Heavy'"
       id="path146" />
    <path
       d="m 50.805976,160.3292 c -6.188,0 -10.248,4.144 -10.248,10.472 0,6.3 4.088,10.472 10.192,10.472 5.992,0 10.024,-4.2 10.024,-10.444 0,-6.272 -4.004,-10.5 -9.968,-10.5 z m -0.084,4.9 c 2.436,0 3.864,1.988 3.864,5.32 0,3.78 -1.344,5.768 -3.836,5.768 -2.52,0 -3.976,-2.044 -3.976,-5.6 0,-3.416 1.484,-5.488 3.948,-5.488 z"
       style="font-style:normal;font-variant:normal;font-weight:900;font-stretch:normal;font-size:28px;font-family:HelveticaNeueCyr;-inkscape-font-specification:'HelveticaNeueCyr Heavy'"
       id="path148" />
    <path
       d="m 87.034476,170.6892 c 0,-4.284 -3.248,-7.84 -9.044,-7.84 v -1.988 h -5.992 v 1.988 c -6.552,0 -9.128,4.172 -9.128,7.896 0,4.676 3.5,8.12 9.128,8.12 v 1.932 h 5.992 v -1.932 c 5.852,0 9.044,-3.472 9.044,-8.176 z m -6.104,0.056 c 0,1.372 -0.476,3.752 -3.08,3.752 v -7.336 c 2.492,0 3.08,2.24 3.08,3.584 z m -8.792,3.78 c -2.408,0 -3.164,-2.016 -3.164,-3.78 0,-1.484 0.728,-3.584 3.164,-3.584 z"
       style="font-style:normal;font-variant:normal;font-weight:900;font-stretch:normal;font-size:28px;font-family:HelveticaNeueCyr;-inkscape-font-specification:'HelveticaNeueCyr Heavy'"
       id="path150" />
    <path
       d="M 106.25648,160.8612 H 89.736476 v 19.936 h 16.800004 v -5.068 H 95.756476 v -2.912 h 9.520004 v -4.62 h -9.520004 v -2.492 h 10.500004 z"
       style="font-style:normal;font-variant:normal;font-weight:900;font-stretch:normal;font-size:28px;font-family:HelveticaNeueCyr;-inkscape-font-specification:'HelveticaNeueCyr Heavy'"
       id="path152" />
    <path
       d="m 128.12798,172.9292 h -6.02 c -0.308,2.072 -1.428,3.192 -3.22,3.192 -2.38,0 -3.836,-2.044 -3.836,-5.348 0,-2.464 0.952,-5.348 3.836,-5.348 1.736,0 2.884,1.008 3.22,2.8 h 5.936 c -0.28,-4.48 -4.172,-7.868 -9.044,-7.868 -6.048,0 -10.108,4.564 -10.108,10.416 0,5.908 3.892,10.5 9.996,10.5 4.844,0 8.876,-2.828 9.24,-8.344 z"
       style="font-style:normal;font-variant:normal;font-weight:900;font-stretch:normal;font-size:28px;font-family:HelveticaNeueCyr;-inkscape-font-specification:'HelveticaNeueCyr Heavy'"
       id="path154" />
    <path
       d="m 149.40141,172.9292 h -6.02 c -0.308,2.072 -1.428,3.192 -3.22,3.192 -2.38,0 -3.836,-2.044 -3.836,-5.348 0,-2.464 0.952,-5.348 3.836,-5.348 1.736,0 2.884,1.008 3.22,2.8 h 5.936 c -0.28,-4.48 -4.172,-7.868 -9.044,-7.868 -6.048,0 -10.108,4.564 -10.108,10.416 0,5.908 3.892,10.5 9.996,10.5 4.844,0 8.876,-2.828 9.24,-8.344 z"
       style="font-style:normal;font-variant:normal;font-weight:900;font-stretch:normal;font-size:28px;font-family:HelveticaNeueCyr;-inkscape-font-specification:'HelveticaNeueCyr Heavy'"
       id="path156" />
    <path
       d="m 169.94685,160.8612 h -6.524 l -5.768,12.292 c 0.084,-1.484 0.14,-3.584 0.14,-4.732 v -7.56 h -5.852 v 19.936 h 6.552 l 5.796,-12.404 c -0.112,1.176 -0.168,3.64 -0.168,4.9 v 7.504 h 5.824 z"
       style="font-style:normal;font-variant:normal;font-weight:900;font-stretch:normal;font-size:28px;font-family:HelveticaNeueCyr;-inkscape-font-specification:'HelveticaNeueCyr Heavy'"
       id="path158" />
    <path
       d="m 182.87629,160.3292 c -6.188,0 -10.248,4.144 -10.248,10.472 0,6.3 4.088,10.472 10.192,10.472 5.992,0 10.024,-4.2 10.024,-10.444 0,-6.272 -4.004,-10.5 -9.968,-10.5 z m -0.084,4.9 c 2.436,0 3.864,1.988 3.864,5.32 0,3.78 -1.344,5.768 -3.836,5.768 -2.52,0 -3.976,-2.044 -3.976,-5.6 0,-3.416 1.484,-5.488 3.948,-5.488 z"
       style="font-style:normal;font-variant:normal;font-weight:900;font-stretch:normal;font-size:28px;font-family:HelveticaNeueCyr;-inkscape-font-specification:'HelveticaNeueCyr Heavy'"
       id="path160" />
    <path
       d="m 213.53279,160.8612 h -6.104 v 6.692 h -5.768 v -6.692 h -6.132 v 19.936 h 6.132 v -7.868 h 5.768 v 7.868 h 6.104 z"
       style="font-style:normal;font-variant:normal;font-weight:900;font-stretch:normal;font-size:28px;font-family:HelveticaNeueCyr;-inkscape-font-specification:'HelveticaNeueCyr Heavy'"
       id="path162" />
    <path
       d="m 228.31023,160.8612 h -6.048 l -7.364,19.936 h 6.188 l 0.98,-2.828 h 6.412 l 0.98,2.828 h 6.188 z m -1.176,12.824 h -3.752 c 0.672,-2.016 1.092,-3.388 1.092,-3.388 0.392,-1.232 0.504,-1.68 0.84,-3.052 0.28,1.316 0.336,1.652 0.756,3.024 0,0 0.7,2.268 1.064,3.416 z"
       style="font-style:normal;font-variant:normal;font-weight:900;font-stretch:normal;font-size:28px;font-family:HelveticaNeueCyr;-inkscape-font-specification:'HelveticaNeueCyr Heavy'"
       id="path164" />
    <path
       d="m 239.4446,160.8612 v 8.568 c 0,3.248 -0.084,6.86 -2.156,6.86 -0.448,0 -0.952,-0.14 -1.204,-0.308 v 4.732 c 0.812,0.336 1.652,0.448 2.436,0.448 7.084,0 6.944,-8.344 6.944,-14 v -1.176 h 3.668 v 14.812 h 6.076 v -19.936 z"
       style="font-style:normal;font-variant:normal;font-weight:900;font-stretch:normal;font-size:28px;font-family:HelveticaNeueCyr;-inkscape-font-specification:'HelveticaNeueCyr Heavy'"
       id="path166" />
    <path
       d="m 264.96091,160.8612 h -6.104 v 19.936 h 9.128 c 5.46,0 8.232,-2.688 8.232,-7 0,-4.172 -2.436,-6.72 -7.868,-6.72 h -3.388 z m 0,10.752 h 2.828 c 1.456,0 2.492,0.532 2.492,2.24 0,1.736 -1.204,2.184 -2.52,2.184 h -2.8 z"
       style="font-style:normal;font-variant:normal;font-weight:900;font-stretch:normal;font-size:28px;font-family:HelveticaNeueCyr;-inkscape-font-specification:'HelveticaNeueCyr Heavy'"
       id="path168" />
    <path
       d="m 296.54841,160.8612 h -6.104 v 6.692 h -5.768 v -6.692 h -6.132 v 19.936 h 6.132 v -7.868 h 5.768 v 7.868 h 6.104 z"
       style="font-style:normal;font-variant:normal;font-weight:900;font-stretch:normal;font-size:28px;font-family:HelveticaNeueCyr;-inkscape-font-specification:'HelveticaNeueCyr Heavy'"
       id="path170" />
    <path
       d="m 309.47785,160.3292 c -6.188,0 -10.248,4.144 -10.248,10.472 0,6.3 4.088,10.472 10.192,10.472 5.992,0 10.024,-4.2 10.024,-10.444 0,-6.272 -4.004,-10.5 -9.968,-10.5 z m -0.084,4.9 c 2.436,0 3.864,1.988 3.864,5.32 0,3.78 -1.344,5.768 -3.836,5.768 -2.52,0 -3.976,-2.044 -3.976,-5.6 0,-3.416 1.484,-5.488 3.948,-5.488 z"
       style="font-style:normal;font-variant:normal;font-weight:900;font-stretch:normal;font-size:28px;font-family:HelveticaNeueCyr;-inkscape-font-specification:'HelveticaNeueCyr Heavy'"
       id="path172" />
    <path
       d="m 338.67835,160.8612 h -16.52 v 19.936 h 16.8 v -5.068 h -10.78 v -2.912 h 9.52 v -4.62 h -9.52 v -2.492 h 10.5 z"
       style="font-style:normal;font-variant:normal;font-weight:900;font-stretch:normal;font-size:28px;font-family:HelveticaNeueCyr;-inkscape-font-specification:'HelveticaNeueCyr Heavy'"
       id="path174" />
    <path
       d="m 360.82941,160.3292 c -6.188,0 -10.248,4.144 -10.248,10.472 0,6.3 4.088,10.472 10.192,10.472 5.992,0 10.024,-4.2 10.024,-10.444 0,-6.272 -4.004,-10.5 -9.968,-10.5 z m -0.084,4.9 c 2.436,0 3.864,1.988 3.864,5.32 0,3.78 -1.344,5.768 -3.836,5.768 -2.52,0 -3.976,-2.044 -3.976,-5.6 0,-3.416 1.484,-5.488 3.948,-5.488 z"
       style="font-style:normal;font-variant:normal;font-weight:900;font-stretch:normal;font-size:28px;font-family:HelveticaNeueCyr;-inkscape-font-specification:'HelveticaNeueCyr Heavy'"
       id="path176" />
    <path
       d="m 382.44191,172.4812 c 1.932,0 3.192,0.168 3.192,1.82 0,1.568 -1.26,1.848 -2.744,1.848 h -3.444 v -3.668 z m -2.996,-6.944 h 10.556 v -4.676 h -16.492 v 19.936 h 9.52 c 5.292,0 8.54,-1.54 8.54,-6.552 0,-4.872 -4.368,-6.076 -7.644,-6.076 h -4.48 z"
       style="font-style:normal;font-variant:normal;font-weight:900;font-stretch:normal;font-size:28px;font-family:HelveticaNeueCyr;-inkscape-font-specification:'HelveticaNeueCyr Heavy'"
       id="path178" />
    <path
       d="m 403.86848,160.3292 c -6.188,0 -10.248,4.144 -10.248,10.472 0,6.3 4.088,10.472 10.192,10.472 5.992,0 10.024,-4.2 10.024,-10.444 0,-6.272 -4.004,-10.5 -9.968,-10.5 z m -0.084,4.9 c 2.436,0 3.864,1.988 3.864,5.32 0,3.78 -1.344,5.768 -3.836,5.768 -2.52,0 -3.976,-2.044 -3.976,-5.6 0,-3.416 1.484,-5.488 3.948,-5.488 z"
       style="font-style:normal;font-variant:normal;font-weight:900;font-stretch:normal;font-size:28px;font-family:HelveticaNeueCyr;-inkscape-font-specification:'HelveticaNeueCyr Heavy'"
       id="path180" />
    <path
       d="m 416.52098,160.8612 v 19.936 h 6.076 v -6.16 h 3.808 c 4.284,0 7.504,-2.1 7.504,-6.692 0,-5.824 -4.34,-7.084 -8.708,-7.084 z m 6.076,4.9 h 2.828 c 1.792,0 2.632,0.7 2.632,2.128 0,1.624 -1.036,2.1 -2.52,2.1 h -2.94 z"
       style="font-style:normal;font-variant:normal;font-weight:900;font-stretch:normal;font-size:28px;font-family:HelveticaNeueCyr;-inkscape-font-specification:'HelveticaNeueCyr Heavy'"
       id="path182" />
    <path
       d="m 440.49248,173.9372 c 0.196,0.42 0.28,0.756 0.28,1.064 0,0.98 -0.868,1.456 -1.68,1.456 -0.952,0 -2.044,-0.392 -2.268,-0.588 v 4.788 c 0.476,0.308 2.744,0.644 3.892,0.644 1.904,0 4.256,-1.68 5.404,-4.144 l 7.588,-16.296 h -6.692 l -2.156,5.824 c -0.336,0.896 -0.616,1.904 -0.924,3.444 -0.28,-1.428 -0.7,-2.688 -0.98,-3.444 l -2.156,-5.824 h -6.692 z"
       style="font-style:normal;font-variant:normal;font-weight:900;font-stretch:normal;font-size:28px;font-family:HelveticaNeueCyr;-inkscape-font-specification:'HelveticaNeueCyr Heavy'"
       id="path184" />
    <path
       d="m 456.42841,160.8612 v 1.792 c 0,5.012 -0.784,10.08 -2.38,13.048 h -2.044 v 9.744 h 5.572 v -4.648 h 11.06 v 4.648 h 5.544 v -9.744 h -2.464 v -14.84 z m 9.296,14.84 h -5.6 c 0.84,-1.596 1.82,-5.796 1.82,-8.148 v -1.68 h 3.78 z"
       style="font-style:normal;font-variant:normal;font-weight:900;font-stretch:normal;font-size:28px;font-family:HelveticaNeueCyr;-inkscape-font-specification:'HelveticaNeueCyr Heavy'"
       id="path186" />
    <path
       d="m 485.73566,160.3292 c -6.188,0 -10.248,4.144 -10.248,10.472 0,6.3 4.088,10.472 10.192,10.472 5.992,0 10.024,-4.2 10.024,-10.444 0,-6.272 -4.004,-10.5 -9.968,-10.5 z m -0.084,4.9 c 2.436,0 3.864,1.988 3.864,5.32 0,3.78 -1.344,5.768 -3.836,5.768 -2.52,0 -3.976,-2.044 -3.976,-5.6 0,-3.416 1.484,-5.488 3.948,-5.488 z"
       style="font-style:normal;font-variant:normal;font-weight:900;font-stretch:normal;font-size:28px;font-family:HelveticaNeueCyr;-inkscape-font-specification:'HelveticaNeueCyr Heavy'"
       id="path188" />
    <path
       d="m 498.41616,160.8612 v 19.936 h 10.472 c 3.892,0 7.644,-1.372 7.644,-6.048 0,-2.576 -1.232,-4.116 -3.472,-4.9 1.512,-0.896 2.492,-2.044 2.492,-4.004 0,-4.116 -3.78,-4.984 -7.084,-4.984 z m 5.936,4.536 h 3.164 c 1.428,0 2.128,0.532 2.128,1.568 0,0.952 -0.7,1.512 -1.848,1.512 h -3.444 z m 0,6.916 h 3.78 c 1.512,0 2.324,0.672 2.324,1.904 0,1.232 -0.784,1.848 -2.324,1.848 h -3.78 z"
       style="font-style:normal;font-variant:normal;font-weight:900;font-stretch:normal;font-size:28px;font-family:HelveticaNeueCyr;-inkscape-font-specification:'HelveticaNeueCyr Heavy'"
       id="path190" />
    <path
       d="m 530.62273,160.8612 h -6.048 l -7.364,19.936 h 6.188 l 0.98,-2.828 h 6.412 l 0.98,2.828 h 6.188 z m -1.176,12.824 h -3.752 c 0.672,-2.016 1.092,-3.388 1.092,-3.388 0.392,-1.232 0.504,-1.68 0.84,-3.052 0.28,1.316 0.336,1.652 0.756,3.024 0,0 0.7,2.268 1.064,3.416 z"
       style="font-style:normal;font-variant:normal;font-weight:900;font-stretch:normal;font-size:28px;font-family:HelveticaNeueCyr;-inkscape-font-specification:'HelveticaNeueCyr Heavy'"
       id="path192" />
    <path
       d="m 557.3531,160.8612 h -6.104 v 6.692 h -5.768 v -6.692 h -6.132 v 19.936 h 6.132 v -7.868 h 5.768 v 7.868 h 6.104 z"
       style="font-style:normal;font-variant:normal;font-weight:900;font-stretch:normal;font-size:28px;font-family:HelveticaNeueCyr;-inkscape-font-specification:'HelveticaNeueCyr Heavy'"
       id="path194" />
    <path
       d="m 578.62654,160.8612 h -6.524 l -5.768,12.292 c 0.084,-1.484 0.14,-3.584 0.14,-4.732 v -7.56 h -5.852 v 19.936 h 6.552 l 5.796,-12.404 c -0.112,1.176 -0.168,3.64 -0.168,4.9 v 7.504 h 5.824 z"
       style="font-style:normal;font-variant:normal;font-weight:900;font-stretch:normal;font-size:28px;font-family:HelveticaNeueCyr;-inkscape-font-specification:'HelveticaNeueCyr Heavy'"
       id="path196" />
    <path
       d="m 598.44398,160.8612 h -16.52 v 19.936 h 16.8 v -5.068 h -10.78 v -2.912 h 9.52 v -4.62 h -9.52 v -2.492 h 10.5 z"
       style="font-style:normal;font-variant:normal;font-weight:900;font-stretch:normal;font-size:28px;font-family:HelveticaNeueCyr;-inkscape-font-specification:'HelveticaNeueCyr Heavy'"
       id="path198" />
  </g>
</svg>
